# xmcd
#
# Track frame offsets:
#   150
#   16338
#   33713
#   50212
#   69299
#   83497
#   117398
#   150671
#   183097
#   201127
#   220764
#   239612
#   257753
#   280138
#   294693
#
# Disc length: 4399 seconds
#
# Revision: 0
# Processed by: cddbd v1.4PL0 Copyright (c) Steve Scherf et al.
# Submitted via: uFREEDB 1.6.0
#
DISCID=d9112d0f
DTITLE=Eric Clapton - Story (zelf bedacht)
DYEAR=1930
DGENRE=Blues
TTITLE0=cocaine
TTITLE1=lay down sally
TTITLE2=wonderfull tonight
TTITLE3=crossroads
TTITLE4=after midnight
TTITLE5=further on up the road (live)
TTITLE6=rambling on my mind (live)
TTITLE7=layla
TTITLE8=next time you see her
TTITLE9=knockin' on heaven's door
TTITLE10=sunshine of your love
TTITLE11=tulsa time
TTITLE12=let it grow
TTITLE13=steady rollin' man
TTITLE14=have you ever loved a woman? (live)
EXTD=
EXTT0=
EXTT1=
EXTT2=
EXTT3=
EXTT4=
EXTT5=
EXTT6=
EXTT7=
EXTT8=
EXTT9=
EXTT10=
EXTT11=
EXTT12=
EXTT13=
EXTT14=
PLAYORDER=
